<?xml version="1.0" encoding="utf-8"?>
<!-- Generator: Adobe Illustrator 24.1.1, SVG Export Plug-In . SVG Version: 6.00 Build 0)  -->
<svg version="1.1" id="Layer_1" xmlns="http://www.w3.org/2000/svg" xmlns:xlink="http://www.w3.org/1999/xlink" x="0px" y="0px"
	 viewBox="0 0 960 560" style="enable-background:new 0 0 960 560;" xml:space="preserve">
<style type="text/css">
	.st0{opacity:0.3;fill:#F5497C;}
	.st1{fill:#7B52BA;}
	.st2{fill:#F5497C;}
	.st3{fill:#906BD6;}
	.st4{fill:#FFA0D2;}
	.st5{opacity:0.3;fill:#7B52BA;}
	.st6{opacity:0.5;fill:#F5497C;}
	.st7{opacity:0.3;}
	.st8{fill:#EFE5DA;}
	.st9{fill:#FFFFFF;}
	.st10{clip-path:url(#XMLID_3_);fill:#EFE5DA;}
	.st11{fill:#332B25;}
	.st12{fill:#FFA05F;}
	.st13{fill:#2F748C;}
	.st14{fill:#3F352F;}
	.st15{clip-path:url(#XMLID_4_);fill:#F48656;}
	.st16{clip-path:url(#XMLID_5_);fill:#4F342F;}
	.st17{clip-path:url(#XMLID_6_);fill:#4F342F;}
	.st18{clip-path:url(#XMLID_7_);fill:#ED765F;}
	.st19{clip-path:url(#XMLID_7_);fill:#FFFFFF;}
	.st20{fill:#FFD19F;}
	.st21{fill:#B26E36;}
	.st22{fill:#44413D;}
	.st23{fill:#F8F8F8;}
	.st24{clip-path:url(#XMLID_8_);fill:#F9B693;}
	.st25{clip-path:url(#XMLID_9_);fill:#75421C;}
	.st26{clip-path:url(#XMLID_10_);fill:#75421C;}
	.st27{clip-path:url(#XMLID_11_);fill:#ED765F;}
	.st28{clip-path:url(#XMLID_11_);fill:#FFFFFF;}
</style>
<g>
	<path class="st0" d="M776.6,406.2c0-7.04-0.63-14.3-3.04-20.94c-2.41-6.61-6.4-12.41-9.52-18.65c-3.27-6.55-6.23-13.6-8.37-20.56
		c-1.04-3.39-2.37-6.7-2.67-10.28c-1.02-12.3,1.73-23.96,2.67-36.16c0.82-10.7,0.27-22.15-1.14-32.74
		c-1.12-8.42-3.34-15.88-6.85-23.6c-0.13-0.29-0.66-2.37-1.14-3.05c-2.93-4.1-5.25-8.58-8.38-12.56
		c-4.43-5.64-10.33-10.82-15.99-15.23c-13.08-10.17-28.89-15.96-42.63-25.12c-10.65-7.1-19.61-16-28.17-25.5
		c-7.17-7.96-12.5-17.66-18.27-26.65c-7.82-12.16-16.38-24.05-27.03-33.88c-5.36-4.95-11.03-10.5-17.89-13.32
		c-21.32-8.78-50.87-7.89-71.94,1.14c-9.73,4.17-18.2,10.17-27.41,15.23c-9.11,5.01-18.21,9.6-27.79,13.7
		c-15.05,6.45-30.84,9.28-46.82,11.8c-15.25,2.41-30.28,2.14-44.92,7.99c-9.9,3.96-19.97,8.41-28.55,14.85
		c-18,13.5-31.53,32.98-41.49,52.91c-3.95,7.91-8.12,15.97-11.04,24.36c-6.14,17.65-11.39,35.62-17.51,53.29
		c-4.99,14.43-11.68,27.54-20.55,39.97c-2.29,3.21-5.1,6.12-7.61,9.14c-5.31,6.37-10.1,13.27-15.23,19.79
		c-2.87,3.66-4.53,7.83-6.85,11.8c-4.72,8.08-8.24,16.82-10.66,25.89c-1.94,7.29-2.41,15.09-2.38,22.67h569.4
		C776.75,410.24,776.6,408.06,776.6,406.2z"/>
	<g>
		<path class="st1" d="M713.93,297.59c-0.77-1.59,1.23-3.3,1.93-4.91c0.5-1.16,0.85-2.46,1.18-3.68c1.82-6.81,3.27-13.64,3.78-20.68
			c0.2-2.75,0.07-5.46,0.02-8.21c-0.09-5.77,0.07-11.57-0.33-17.33c-0.45-6.61-1.13-13.23-1.69-19.84
			c-0.81-9.48-2.01-19.8,1.63-28.87c0.96-2.38,2.06-4.86,3.74-6.84c5.93-6.99,15.54-6.11,22.58-1.32
			c8.17,5.56,12.74,14.91,15.27,24.18c5.52,20.21,4.29,42.1-0.72,62.3c-1.77,7.15-3.66,14.22-6.37,21.08
			c-1.96,4.96-4.25,9.72-6.75,14.43c-1.39,2.62-3.24,5.92-5.77,7.62c-4.15,2.8-8.83,1.14-12.78-1.23
			C723.09,310.34,717.21,304.39,713.93,297.59z"/>
		<path d="M725.31,310.91c0,0-0.01,0-0.01,0c-0.06-0.01-0.11-0.07-0.1-0.13c0.04-0.33,0.31-0.6,0.56-0.86
			c0.18-0.18,0.36-0.37,0.46-0.56c0.63-1.33,1.35-2.65,2.03-3.92l0.47-0.86c0.67-1.24,1.37-2.48,2.05-3.69
			c2.08-3.69,4.22-7.51,5.72-11.59c1.39-3.79,2.29-7.81,3.16-11.69l0.32-1.42c3.42-15.18,4.81-30.69,4.15-46.07
			c-0.22-5.2-0.75-10.6-1.62-16.53c-0.09-0.64-0.17-1.3-0.24-2c-0.19-1.75-0.39-3.55-0.94-5.09c-0.02-0.06,0.01-0.13,0.07-0.15
			c0.06-0.02,0.13,0.01,0.15,0.07c0.56,1.56,0.76,3.38,0.95,5.14c0.08,0.7,0.15,1.35,0.24,1.99c0.87,5.93,1.4,11.35,1.62,16.55
			c0.66,15.41-0.74,30.93-4.16,46.13l-0.32,1.42c-0.87,3.89-1.77,7.91-3.16,11.72c-1.51,4.1-3.66,7.93-5.74,11.63
			c-0.68,1.2-1.38,2.45-2.04,3.68l-0.47,0.86c-0.69,1.27-1.4,2.58-2.03,3.91c-0.11,0.23-0.31,0.43-0.5,0.63
			c-0.24,0.24-0.47,0.47-0.5,0.73C725.42,310.86,725.37,310.91,725.31,310.91z"/>
	</g>
	<g>
		<g>
			<path class="st2" d="M747.04,348.61c0.31-2.63,2.97-4.55,4.33-6.82c3.08-5.15,5.25-11.23,5.36-17.27
				c0.21-10.86-5.87-21.88-4.06-32.59c1.43-8.43,8.83-16.74,15.79-21.21c3.47-2.23,7.06-4.29,10.38-6.75
				c3.38-2.49,6.51-5.42,9.28-8.57c4.72-5.37,6.95-12.17,6.85-19.24c-0.04-2.86-0.26-5.6-0.78-8.42c-0.03-0.14-0.5-2.13-0.25-2.27
				c0.24-0.12,1.57,1.02,1.75,1.16c1.99,1.55,3.53,3.84,5.17,5.76c7.37,8.69,9.78,19.86,8.79,31.11c-0.3,3.37-0.92,6.98-2.34,10.09
				c-6.06,13.31-19.21,22.42-22.47,37.09c-1.15,5.17-0.98,11.15,0.14,16.32c2.58,11.98,8.77,24.81,2.39,36.72
				c-3.23,6.02-7.36,12.49-13.16,16.3c-1.45,0.95-3.46,2.9-5.25,3.11c-3.34,0.38-6.2-4.36-7.88-6.58
				c-4.18-5.54-7.47-11.79-10.54-18.01C749.09,355.63,746.65,351.92,747.04,348.61z"/>
		</g>
		<g>
			<path d="M755.41,367.56c-0.02,0-0.04-0.01-0.06-0.02c-0.05-0.03-0.07-0.1-0.04-0.16c0.38-0.63,1.03-1.02,1.66-1.4
				c0.3-0.18,0.6-0.36,0.87-0.56c1.04-0.79,2.08-1.84,3.27-3.29c6.55-8.06,10.02-16.64,10.31-25.5c0.16-4.89-1.04-9.37-2.31-14.11
				c-0.18-0.66-0.35-1.31-0.53-1.97c-2.54-9.68-2.87-17.45-1-23.75c2.52-8.5,9.06-13.94,15.39-19.19c3.48-2.89,7.07-5.88,9.98-9.35
				c1.89-2.26,5.96-9.02,6.49-15.52c0.01-0.06,0.06-0.11,0.12-0.11c0.06,0.01,0.11,0.06,0.11,0.12c-0.53,6.55-4.63,13.37-6.54,15.65
				c-2.92,3.49-6.52,6.48-10,9.38c-6.3,5.23-12.81,10.65-15.31,19.08c-1.85,6.26-1.52,13.98,1,23.62c0.17,0.66,0.35,1.32,0.52,1.97
				c1.28,4.76,2.48,9.25,2.32,14.17c-0.29,8.91-3.78,17.54-10.36,25.64c-1.2,1.47-2.25,2.53-3.31,3.33
				c-0.28,0.21-0.59,0.4-0.89,0.58c-0.63,0.38-1.23,0.73-1.58,1.32C755.49,367.54,755.45,367.56,755.41,367.56z"/>
		</g>
	</g>
	<g>
		<path class="st3" d="M240.05,308.37c-0.13-0.07-0.29-0.08-0.38-0.2c-1.4-1.89-2.72-3.84-4.06-5.78
			c-3.25-4.69-5.68-10.28-7.74-15.58c-6.19-15.96-7.86-32.65-7.76-49.66c0.06-10.11,1.18-20.01,4.36-29.66
			c2.68-8.12,6.32-15.68,12.33-21.82c2.62-2.67,6.39-5.04,10.32-4.84c9.29,0.48,11.23,13.16,10.29,20.57
			c-2.13,16.92-7.2,33.34-7.83,50.48c-0.27,7.35,0.11,14.62,1.15,21.9c0.8,5.65,2.07,11.31,2.27,17.03c0.09,2.7,0.3,6-1.01,8.49
			c-1.39,2.64-3.83,4.72-5.95,6.76C244.52,307.54,242.33,309.57,240.05,308.37z"/>
		<path d="M247.15,304.65c-0.04,0-0.08-0.02-0.1-0.05c-0.37-0.59-0.79-1.18-1.21-1.75c-0.62-0.87-1.27-1.76-1.76-2.72
			c-4.45-8.58-7.73-19.01-9.77-31c-2.86-16.79-3.41-31.49-1.7-44.96c0.85-6.71,2.51-13.28,3.97-19.08c0.12-0.48,0.24-1,0.37-1.54
			c0.57-2.42,1.29-5.44,2.48-7.39c0.03-0.05,0.1-0.07,0.16-0.04c0.05,0.03,0.07,0.1,0.04,0.16c-1.17,1.92-1.88,4.91-2.45,7.32
			c-0.13,0.54-0.25,1.06-0.37,1.54c-1.46,5.79-3.12,12.35-3.97,19.05c-1.71,13.44-1.15,28.12,1.7,44.89
			c2.04,11.96,5.32,22.37,9.75,30.93c0.49,0.94,1.13,1.83,1.75,2.69c0.41,0.57,0.84,1.17,1.21,1.77c0.03,0.05,0.02,0.12-0.04,0.16
			C247.19,304.64,247.17,304.65,247.15,304.65z"/>
	</g>
	<g>
		<path class="st2" d="M232.55,322.19c-0.14,0-0.28-0.01-0.43-0.03l0,0c-0.04-0.01-0.08,0-0.13,0c-0.11,0-0.23,0-0.34-0.07
			c-1.54-1-3.06-2.07-4.54-3.1c-0.43-0.3-0.86-0.6-1.29-0.9c-4.91-3.42-9.37-8.17-12.71-11.92c-9.94-11.19-17.77-25.12-24.62-43.86
			c-3.87-10.58-5.92-20.18-6.26-29.35c-0.38-10.02,0.88-17.9,3.96-24.8c0.88-1.98,3.43-6.75,8.05-8.2c2.53-0.79,5.01-0.52,7.38,0.83
			c4.85,2.76,8.31,9.49,9.59,14.94c1.56,6.62,2.67,13.44,3.74,20.03c1.62,9.94,3.29,20.21,6.53,30c2.33,7.03,5.18,13.61,8.71,20.11
			c0.82,1.5,1.69,3.02,2.53,4.49c1.97,3.43,4.01,6.98,5.54,10.68l0.18,0.43c1.03,2.47,2.19,5.28,1.85,7.94
			c-0.33,2.55-1.51,4.96-2.66,7.28c-0.19,0.39-0.38,0.78-0.57,1.16C236.27,319.48,234.97,322.19,232.55,322.19z M232.03,321.92
			c0.04,0,0.08,0,0.12,0.01h0c2.52,0.32,3.84-2.4,4.71-4.2c0.19-0.38,0.38-0.77,0.57-1.16c1.14-2.31,2.32-4.7,2.64-7.21
			c0.33-2.6-0.82-5.38-1.83-7.82l-0.18-0.43c-1.52-3.69-3.56-7.23-5.53-10.66c-0.84-1.47-1.72-2.99-2.54-4.5
			c-3.54-6.51-6.39-13.1-8.73-20.15c-3.25-9.8-4.92-20.08-6.54-30.03c-1.07-6.59-2.18-13.4-3.74-20.02
			c-1.27-5.4-4.7-12.07-9.48-14.8c-2.31-1.31-4.73-1.59-7.19-0.81c-4.53,1.42-7.04,6.12-7.91,8.07c-3.06,6.87-4.31,14.72-3.94,24.7
			c0.34,9.15,2.39,18.73,6.25,29.28c6.85,18.71,14.65,32.63,24.58,43.79c3.33,3.74,7.77,8.47,12.67,11.88
			c0.43,0.3,0.86,0.6,1.29,0.9c1.47,1.03,3,2.1,4.53,3.1c0.05,0.03,0.13,0.03,0.22,0.03C232.01,321.92,232.02,321.92,232.03,321.92z
			"/>
		<path class="st2" d="M237.45,316.08c-0.02,0-0.05-0.01-0.07-0.02c-0.55-0.43-1.16-0.83-1.74-1.22c-0.89-0.59-1.8-1.21-2.6-1.93
			c-7.16-6.49-13.88-15.12-19.97-25.64c-8.53-14.74-14.18-28.33-17.28-41.54c-1.54-6.59-2.28-13.33-2.93-19.27
			c-0.05-0.49-0.12-1.02-0.19-1.57c-0.31-2.47-0.69-5.54-0.25-7.79c0.01-0.06,0.07-0.1,0.13-0.09c0.06,0.01,0.1,0.07,0.09,0.13
			c-0.43,2.21-0.05,5.26,0.26,7.71c0.07,0.55,0.14,1.08,0.19,1.57c0.65,5.94,1.39,12.67,2.93,19.24
			c3.09,13.19,8.73,26.76,17.25,41.48c6.08,10.5,12.79,19.11,19.93,25.59c0.78,0.71,1.69,1.32,2.57,1.91
			c0.59,0.39,1.2,0.8,1.76,1.23c0.05,0.04,0.06,0.11,0.02,0.16C237.52,316.07,237.49,316.08,237.45,316.08z"/>
	</g>
	<g>
		<path class="st2" d="M253.75,399.59c-0.17-3.04-2.24-5.26-4.22-7.3c-4.8-4.97-12.28-7.06-16-13.34
			c-6.08-10.25-5.93-21.91-9.09-33.21c-0.8-2.87-1.43-6.27-3.14-8.77c-7.45-10.87-22.84-11.72-29.63-23.17
			c-3.6-6.06-1.26-14.24-0.18-20.64c1.11-6.57,1.24-14.04-1.39-20.27c-1.57-3.73-5.13-6.88-8.86-8.39
			c-1.89-0.77-3.97-1.34-5.76-2.29c-3.52-1.87-6.72-3.67-9.28-6.85c-2.85-3.54-4.19-7.76-4.6-12.27c-0.12-1.35-0.15-2.69-0.23-4.03
			c-0.06-1.01,0.3-2.41,0.18-2.4c-0.52,0.05-1.59,1.39-1.94,1.71c-2.34,2.18-3.74,4.97-5.19,7.79c-3.94,7.66-4.37,17.25-0.28,24.93
			c2.99,5.62,8.11,10.62,8.9,17.25c1.14,9.53-3.78,17.87-5.43,26.96c-1.17,6.46-0.21,13.13,2.43,19.13
			c2.48,5.64,7.29,10.49,12.36,13.86c2.51,1.67,5.4,2.7,7.88,4.36c3.59,2.41,6.25,6.15,7.75,10.19c2.61,7.03-0.32,14.35-0.49,21.49
			c-0.12,5.02,0.95,9.17,2.97,12.61l62.64,5.67C253.57,401.67,253.81,400.67,253.75,399.59z"/>
		<path d="M210.57,379.35c-0.36-2.43-0.49-4.92-0.61-7.32c-0.15-2.88-0.3-5.86-0.85-8.75c-1.44-7.54-5.18-13.62-10.53-17.12
			c-1.52-1-3.21-1.75-4.84-2.48c-1.34-0.6-2.73-1.22-4.01-1.97c-4.02-2.35-9.56-6.46-13.12-12.68c-3.38-5.9-4.95-12.13-4.55-18.03
			c0.22-3.19,0.96-6.43,1.68-9.55c1.14-4.94,2.31-10.04,1.48-15.17c-0.44-2.72-0.96-5.37-2.43-7.76c-1.03-1.68-2.58-2.92-4.08-4.13
			c-0.85-0.68-1.73-1.38-2.49-2.15c-2.78-2.8-4.13-5.6-5.32-8.95c-0.02-0.06-0.09-0.09-0.15-0.07c-0.06,0.02-0.09,0.09-0.07,0.15
			c1.2,3.38,2.57,6.21,5.38,9.04c0.77,0.78,1.65,1.48,2.51,2.17c1.49,1.19,3.02,2.42,4.03,4.07c1.45,2.36,1.96,4.98,2.4,7.68
			c0.83,5.09-0.34,10.17-1.47,15.08c-0.72,3.14-1.47,6.38-1.69,9.59c-0.41,5.93,1.18,12.21,4.58,18.16
			c3.59,6.26,9.16,10.39,13.2,12.76c1.29,0.75,2.68,1.38,4.03,1.98c1.62,0.72,3.3,1.47,4.81,2.46c5.3,3.47,9,9.5,10.43,16.97
			c0.55,2.88,0.7,5.85,0.85,8.72c0.12,2.41,0.25,4.91,0.61,7.34c0.88,5.9,2.89,13.62,7.48,19.97l0.3,0.03
			C213.48,393.04,211.45,385.27,210.57,379.35z"/>
	</g>
	<path class="st4" d="M545.17,404.68c-0.99-8.43-1.64-17.36-4.19-25.5c-4.74-15.18-13.71-29.66-28.35-38.48
		c-14.63-8.82-38.26-11.76-38.26-11.76s-0.5-5.88-0.76-8.76c-0.4-4.39-0.44-8.62-1.52-12.94c-1.06-4.25-5.9-11.61-9.14-14.85
		c-7.12-7.12-17.62-10.06-27.41-11.04c-2.06-0.21-4.4-0.12-6.47,0c-2.03,0.12-4.4,1.51-6.09,0.38c-0.23-0.15,0-3.15,0-3.43
		c0-3.31-0.13-6.6-0.38-9.9c-0.89-11.6-2.4-22.72-7.99-33.12c-5.98-11.11-15.42-21.58-28.55-23.6c-5.27-0.81-11.62,0.04-16.75,1.14
		c-0.36,0.08-3.7,2.01-4.95,0.76c-0.89-0.89-0.74-2.79-1.14-3.81c-1.29-3.23-2.73-6.84-4.57-9.9
		c-7.91-13.19-21.29-23.24-36.92-24.36c-20.79-1.49-38.15,8.64-48.72,26.26c-3.95,6.58-7.7,13.96-10.22,21.15
		c-2.83,8.08-4.44,16.35-5.39,24.9c-0.29,2.65,0.16,5.33,0,7.99c-0.06,1.07-9.49,4.68-10.66,5.33
		c-10.48,5.82-19.12,13.86-25.12,24.36c-7.74,13.55-11.23,28.79-12.94,44.15c-0.57,5.12-0.92,10.46-0.76,15.61
		c0.1,3.05,0.27,6.09,0.38,9.14c0.01,0.38,0.17,0.8,0,1.14c-0.23,0.45-2.29,0.61-2.66,0.76c-2.31,0.92-4.88,2.33-6.85,3.81
		c-3.41,2.56-7.23,4.94-10.28,7.99c-2.89,2.89-5.52,6.28-8.37,9.14c-7.48,7.48-10.51,24.11-9.5,35.23h375.3
		C545.75,409.3,545.36,406.36,545.17,404.68z"/>
	<path class="st3" d="M796.01,403.92c0-15.96,0.26-32.48-11.8-44.53c-3.23-3.23-7.6-7.3-11.8-9.14c-1.83-0.8-6.92-0.89-7.23-1.52
		c-0.33-0.65,1.14-13.8,1.14-18.65c0-11.11-2.86-22.74-6.85-33.12c-3.89-10.12-10.36-18.67-19.41-24.36
		c-10.2-6.41-21.87-4.68-23.98-6.09c-1.63-1.09-1.22-8.72-9.29-18.6c-8.06-9.89-27.48-15.7-41.34-11.47
		c-19.75,6.02-24.87,21.87-26.65,22.46c-0.57,0.19-10.01-2.67-20.55,0.38c-15.89,4.59-29.67,24.18-35.4,38.83
		c-4.28,10.94-6.21,21.81-6.47,33.5c-0.16,7.26,2.27,16,1.9,16.37c-0.57,0.58-5,0-5.71,0c-6.24,0-13.39,0.05-19.41,1.9
		c-13.77,4.24-30.39,11.8-41.81,28.39c-11.42,16.59-15.26,34.25-15.26,34.25h299.12C795.84,409.41,796.01,406.25,796.01,403.92z"/>
	<path class="st5" d="M170.63,412.51c0.67,2.87,2.94,5.79,4.57,8.19c4.81,7.06,14.08,15.32,22.02,18.71
		c14.49,6.19,30.51,7.64,46.19,9.04c22.78,2.03,45.69,5.1,66.72,14.08c6.78,2.89,13.41,6.04,20.16,8.92
		c6.99,2.98,13.31,6.74,21.09,7.8c10.43,1.42,20.84,0.02,31.23-0.42c21.81-0.93,43.6-4.1,65.15-7.52
		c7.85-1.24,16.11-0.93,24.02-1.46c19.34-1.3,39.19,1.37,58.28,4.2c15.79,2.34,31.24,6.36,47.42,5.84
		c14.5-0.47,29.44-2.17,43.55-5.54c20.82-4.97,40.99-12.04,61.73-17.14c14.92-3.68,30.61-2.46,45.78-1.93
		c7.73,0.27,15.13,1.16,22.86-0.07c14.67-2.33,28.16-13,35.62-25.19c2.3-3.77,6.52-11.15,8.19-17.5H170.63z"/>
	<path class="st6" d="M761.75,131.42c-11.83-18.79-31.06-33.96-54.6-30.54c-5.91,0.86-11.28,3.1-16.53,5.85
		c-10.13,5.31-17.82,14.03-28.02,19.22c-7.52,3.83-16.05,3.62-23.69,7.09c-5.93,2.69-11.24,7.09-14.33,12.84
		c-0.69,1.28-1.28,2.72-1.74,4.18h145.79C767.16,143.41,765.48,137.34,761.75,131.42z"/>
	<path class="st6" d="M364.01,127.98c-1.87-3.78-4.45-7.07-7.44-10.09c-5.49-5.55-12.75-4.51-18.93-8.26
		c-0.91-0.55-1.67-1.55-2.42-2.31c-2.37-2.39-4.47-4.99-6.58-7.59c-3.8-4.69-9.07-7.91-14.94-9.12c-9.65-1.98-20.46,2.01-26.84,9.39
		c-3.23,3.73-6.18,8.81-10.79,11.09c-3.56,1.76-7.28,1.8-11.02,2.85c-5.27,1.48-10.12,4.9-12.87,9.66
		c-0.87,1.51-2.35,3.97-2.54,6.08h115.26C364.61,129.06,364.25,128.47,364.01,127.98z"/>
	<path class="st2" d="M699.63,121.54H584.37c-0.03,0-0.06-0.01-0.09-0.04c-0.02-0.02-0.03-0.06-0.03-0.09
		c0.18-2.03,1.53-4.36,2.42-5.9l0.13-0.23c2.66-4.61,7.38-8.15,12.94-9.71c1.37-0.38,2.75-0.64,4.09-0.88
		c2.4-0.44,4.66-0.85,6.91-1.96c3.4-1.68,5.88-4.88,8.28-7.98c0.84-1.09,1.64-2.12,2.47-3.08c6.57-7.6,17.4-11.38,26.95-9.43
		c5.87,1.2,11.2,4.45,15.01,9.16l0.08,0.1c2.04,2.52,4.15,5.12,6.49,7.48c0.21,0.21,0.41,0.43,0.62,0.66
		c0.55,0.61,1.13,1.23,1.78,1.63c2.57,1.56,5.37,2.3,8.08,3.01c3.76,0.99,7.65,2.02,10.87,5.27c3.31,3.34,5.75,6.65,7.47,10.12
		c0.11,0.21,0.23,0.45,0.37,0.69c0.18,0.32,0.36,0.65,0.53,1c0.02,0.04,0.01,0.08-0.01,0.11
		C699.71,121.51,699.67,121.54,699.63,121.54z M584.49,121.3h114.95c-0.14-0.28-0.29-0.56-0.44-0.83c-0.14-0.25-0.27-0.49-0.37-0.7
		c0,0,0,0,0,0c-1.7-3.45-4.13-6.74-7.42-10.06c-3.17-3.2-6.86-4.18-10.76-5.2c-2.72-0.72-5.54-1.46-8.14-3.04
		c-0.68-0.41-1.26-1.05-1.83-1.67c-0.21-0.23-0.41-0.45-0.61-0.65c-2.34-2.37-4.46-4.97-6.5-7.5l-0.08-0.1
		c-3.78-4.66-9.06-7.88-14.88-9.08c-9.46-1.94-20.21,1.82-26.73,9.35c-0.83,0.96-1.62,1.98-2.46,3.07
		c-2.41,3.12-4.91,6.34-8.36,8.05c-2.28,1.13-4.66,1.56-6.97,1.98c-1.33,0.24-2.71,0.49-4.07,0.88c-5.5,1.54-10.17,5.04-12.8,9.61
		l-0.13,0.23C586.01,117.12,584.72,119.35,584.49,121.3z"/>
	<path class="st2" d="M627.22,400.11c-5.33-2.9-9.49-1.12-11.04-2.66c-0.07-0.07-0.67-5.82-0.76-6.47
		c-0.81-5.71-3.43-14.09-6.85-18.65c-11.6-15.46-29.05-12.05-30.83-12.94c-1.3-0.65-6.34-15.24-19.79-18.65
		c-22.14-5.62-36.16,6.45-42.32,18.44c-6.16,11.99-5.08,21.72-5.64,22.29c-0.17,0.17-17.55-0.7-31.59,13.7
		c-4.77,4.89-8.74,10.93-11.44,17.34h170.7C635.79,407.17,632.38,402.91,627.22,400.11z"/>
	<path class="st3" d="M390.26,110.13c-6.04,0-10.96-4.92-10.96-10.96c0-6.04,4.92-10.96,10.96-10.96c6.04,0,10.96,4.92,10.96,10.96
		C401.22,105.21,396.31,110.13,390.26,110.13z M390.26,88.44c-5.92,0-10.73,4.81-10.73,10.73c0,5.92,4.81,10.73,10.73,10.73
		c5.92,0,10.73-4.81,10.73-10.73C400.99,93.25,396.18,88.44,390.26,88.44z"/>
	<path class="st2" d="M708.51,173.58c0,3.71-3.01,6.72-6.72,6.72s-6.72-3.01-6.72-6.72c0-3.71,3.01-6.72,6.72-6.72
		S708.51,169.87,708.51,173.58z"/>
	<g class="st7">
		<ellipse class="st1" cx="257.06" cy="427.18" rx="17.72" ry="6.15"/>
		<ellipse class="st1" cx="376.4" cy="456.75" rx="13.86" ry="4.6"/>
		<path class="st1" d="M428.73,441.91c0,3.52-7.79,6.38-17.4,6.38s-17.4-2.86-17.4-6.38s7.79-6.38,17.4-6.38
			S428.73,438.39,428.73,441.91z"/>
		<path class="st1" d="M632.38,447.03c0,2.83-6,5.12-13.4,5.12c-7.4,0-13.4-2.29-13.4-5.12c0-2.83,6-5.12,13.4-5.12
			C626.39,441.91,632.38,444.2,632.38,447.03z"/>
	</g>
	<g>
		<path class="st8" d="M493.76,177.36l-7.26,64.47c0,3.3,2.65,5.98,5.91,5.98h111.78c3.26,0,5.91-2.68,5.91-5.98v-64.47H493.76z"/>
		<path class="st9" d="M611.27,254.49H499.85c-3.36,0-6.09-2.73-6.09-6.09v-88.22c0-3.36,2.73-6.09,6.09-6.09h111.42
			c3.36,0,6.09,2.73,6.09,6.09v88.22C617.36,251.76,614.63,254.49,611.27,254.49z"/>
		<path class="st2" d="M611.45,154.09H499.67c-3.26,0-5.91,2.93-5.91,6.55v16.72h123.6v-16.72
			C617.36,157.02,614.71,154.09,611.45,154.09z"/>
		<g>
			<g>
				<ellipse class="st4" cx="518.03" cy="164.68" rx="7.35" ry="8.15"/>
				<path class="st8" d="M518.03,167.47L518.03,167.47c-2.29,0-4.14-1.85-4.14-4.14V147c0-2.29,1.85-4.14,4.14-4.14l0,0
					c2.29,0,4.14,1.85,4.14,4.14v16.33C522.17,165.61,520.32,167.47,518.03,167.47z"/>
			</g>
			<g>
				<ellipse class="st4" cx="593.09" cy="164.68" rx="7.35" ry="8.15"/>
				<path class="st8" d="M593.09,167.47L593.09,167.47c-2.29,0-4.14-1.85-4.14-4.14V147c0-2.29,1.85-4.14,4.14-4.14l0,0
					c2.29,0,4.14,1.85,4.14,4.14v16.33C597.23,165.61,595.38,167.47,593.09,167.47z"/>
			</g>
		</g>
		<g>
			<g>
				<path class="st3" d="M560.32,198.24h-9.7c-1.28,0-2.32-1.04-2.32-2.32v-7.29c0-1.28,1.04-2.32,2.32-2.32h9.7
					c1.28,0,2.32,1.04,2.32,2.32v7.29C562.65,197.2,561.61,198.24,560.32,198.24z"/>
				<path class="st2" d="M578.09,198.24h-9.7c-1.28,0-2.32-1.04-2.32-2.32v-7.29c0-1.28,1.04-2.32,2.32-2.32h9.7
					c1.28,0,2.32,1.04,2.32,2.32v7.29C580.41,197.2,579.37,198.24,578.09,198.24z"/>
				<path class="st3" d="M595.85,198.24h-9.7c-1.28,0-2.32-1.04-2.32-2.32v-7.29c0-1.28,1.04-2.32,2.32-2.32h9.7
					c1.28,0,2.32,1.04,2.32,2.32v7.29C598.17,197.2,597.14,198.24,595.85,198.24z"/>
			</g>
			<g>
				<path class="st3" d="M524.79,213.2h-9.7c-1.28,0-2.32-1.04-2.32-2.32v-7.29c0-1.28,1.04-2.32,2.32-2.32h9.7
					c1.28,0,2.32,1.04,2.32,2.32v7.29C527.12,212.16,526.08,213.2,524.79,213.2z"/>
				<path class="st3" d="M542.56,213.2h-9.7c-1.28,0-2.32-1.04-2.32-2.32v-7.29c0-1.28,1.04-2.32,2.32-2.32h9.7
					c1.28,0,2.32,1.04,2.32,2.32v7.29C544.88,212.16,543.84,213.2,542.56,213.2z"/>
				<path class="st3" d="M560.32,213.2h-9.7c-1.28,0-2.32-1.04-2.32-2.32v-7.29c0-1.28,1.04-2.32,2.32-2.32h9.7
					c1.28,0,2.32,1.04,2.32,2.32v7.29C562.65,212.16,561.61,213.2,560.32,213.2z"/>
				<path class="st3" d="M578.09,213.2h-9.7c-1.28,0-2.32-1.04-2.32-2.32v-7.29c0-1.28,1.04-2.32,2.32-2.32h9.7
					c1.28,0,2.32,1.04,2.32,2.32v7.29C580.41,212.16,579.37,213.2,578.09,213.2z"/>
				<path class="st3" d="M595.85,213.2h-9.7c-1.28,0-2.32-1.04-2.32-2.32v-7.29c0-1.28,1.04-2.32,2.32-2.32h9.7
					c1.28,0,2.32,1.04,2.32,2.32v7.29C598.17,212.16,597.14,213.2,595.85,213.2z"/>
			</g>
			<g>
				<path class="st3" d="M524.79,228.16h-9.7c-1.28,0-2.32-1.04-2.32-2.32v-7.29c0-1.28,1.04-2.32,2.32-2.32h9.7
					c1.28,0,2.32,1.04,2.32,2.32v7.29C527.12,227.12,526.08,228.16,524.79,228.16z"/>
				<path class="st3" d="M542.56,228.16h-9.7c-1.28,0-2.32-1.04-2.32-2.32v-7.29c0-1.28,1.04-2.32,2.32-2.32h9.7
					c1.28,0,2.32,1.04,2.32,2.32v7.29C544.88,227.12,543.84,228.16,542.56,228.16z"/>
				<path class="st3" d="M560.32,228.16h-9.7c-1.28,0-2.32-1.04-2.32-2.32v-7.29c0-1.28,1.04-2.32,2.32-2.32h9.7
					c1.28,0,2.32,1.04,2.32,2.32v7.29C562.65,227.12,561.61,228.16,560.32,228.16z"/>
				<path class="st3" d="M578.09,228.16h-9.7c-1.28,0-2.32-1.04-2.32-2.32v-7.29c0-1.28,1.04-2.32,2.32-2.32h9.7
					c1.28,0,2.32,1.04,2.32,2.32v7.29C580.41,227.12,579.37,228.16,578.09,228.16z"/>
				<path class="st3" d="M595.85,228.16h-9.7c-1.28,0-2.32-1.04-2.32-2.32v-7.29c0-1.28,1.04-2.32,2.32-2.32h9.7
					c1.28,0,2.32,1.04,2.32,2.32v7.29C598.17,227.12,597.14,228.16,595.85,228.16z"/>
			</g>
			<g>
				<path class="st4" d="M524.79,243.12h-9.7c-1.28,0-2.32-1.04-2.32-2.32v-7.29c0-1.28,1.04-2.32,2.32-2.32h9.7
					c1.28,0,2.32,1.04,2.32,2.32v7.29C527.12,242.08,526.08,243.12,524.79,243.12z"/>
				<path class="st3" d="M542.56,243.12h-9.7c-1.28,0-2.32-1.04-2.32-2.32v-7.29c0-1.28,1.04-2.32,2.32-2.32h9.7
					c1.28,0,2.32,1.04,2.32,2.32v7.29C544.88,242.08,543.84,243.12,542.56,243.12z"/>
				<path class="st3" d="M560.32,243.12h-9.7c-1.28,0-2.32-1.04-2.32-2.32v-7.29c0-1.28,1.04-2.32,2.32-2.32h9.7
					c1.28,0,2.32,1.04,2.32,2.32v7.29C562.65,242.08,561.61,243.12,560.32,243.12z"/>
				<path class="st3" d="M578.09,243.12h-9.7c-1.28,0-2.32-1.04-2.32-2.32v-7.29c0-1.28,1.04-2.32,2.32-2.32h9.7
					c1.28,0,2.32,1.04,2.32,2.32v7.29C580.41,242.08,579.37,243.12,578.09,243.12z"/>
				<path class="st3" d="M595.85,243.12h-9.7c-1.28,0-2.32-1.04-2.32-2.32v-7.29c0-1.28,1.04-2.32,2.32-2.32h9.7
					c1.28,0,2.32,1.04,2.32,2.32v7.29C598.17,242.08,597.14,243.12,595.85,243.12z"/>
			</g>
		</g>
	</g>
	<g>
		<circle class="st2" cx="351.99" cy="287.79" r="124.73"/>
		
			<ellipse transform="matrix(0.7071 -0.7071 0.7071 0.7071 -100.4059 333.1865)" class="st4" cx="351.99" cy="287.79" rx="107.5" ry="107.5"/>
		
			<ellipse transform="matrix(0.7071 -0.7071 0.7071 0.7071 -100.4059 333.1865)" class="st9" cx="351.99" cy="287.79" rx="101.6" ry="101.6"/>
		<g>
			<g>
				<g>
					<path class="st2" d="M336.84,216.85c-0.93,0-1.76-0.65-1.96-1.59l-2.85-13.72c-0.22-1.08,0.47-2.14,1.55-2.36
						c1.08-0.23,2.14,0.47,2.36,1.55l2.85,13.72c0.22,1.08-0.47,2.14-1.55,2.36C337.11,216.83,336.97,216.85,336.84,216.85z"/>
					<path class="st2" d="M369.98,376.46c-0.93,0-1.76-0.65-1.96-1.59l-2.85-13.72c-0.22-1.08,0.47-2.14,1.55-2.36
						c1.08-0.22,2.14,0.47,2.36,1.55l2.85,13.72c0.22,1.08-0.47,2.14-1.55,2.36C370.26,376.45,370.12,376.46,369.98,376.46z"/>
				</g>
			</g>
			<g>
				<g>
					<path class="st2" d="M424.93,274.65c-0.93,0-1.76-0.65-1.96-1.59c-0.22-1.08,0.47-2.14,1.55-2.36l13.72-2.85
						c1.08-0.23,2.14,0.47,2.36,1.55c0.22,1.08-0.47,2.14-1.55,2.36l-13.72,2.85C425.21,274.63,425.07,274.65,424.93,274.65z"/>
					<path class="st2" d="M265.32,307.79c-0.93,0-1.76-0.65-1.96-1.59c-0.22-1.08,0.47-2.14,1.55-2.36l13.72-2.85
						c1.08-0.22,2.14,0.47,2.36,1.55c0.22,1.08-0.47,2.14-1.55,2.36l-13.72,2.85C265.59,307.78,265.45,307.79,265.32,307.79z"/>
				</g>
			</g>
			<g>
				<g>
					<path class="st2" d="M392.86,227.5c-0.38,0-0.76-0.11-1.1-0.33c-0.92-0.61-1.18-1.85-0.58-2.77l7.69-11.72
						c0.61-0.92,1.85-1.18,2.77-0.58c0.92,0.61,1.18,1.85,0.58,2.77l-7.69,11.72C394.15,227.18,393.51,227.5,392.86,227.5z"/>
					<path class="st2" d="M303.43,363.8c-0.38,0-0.76-0.11-1.1-0.33c-0.92-0.61-1.18-1.85-0.58-2.77l7.69-11.72
						c0.61-0.92,1.85-1.18,2.77-0.58c0.92,0.61,1.18,1.85,0.58,2.77l-7.69,11.72C304.72,363.49,304.08,363.8,303.43,363.8z"/>
				</g>
			</g>
			<g>
				<g>
					<path class="st2" d="M426,338.35c-0.38,0-0.76-0.11-1.1-0.33l-11.72-7.69c-0.92-0.61-1.18-1.85-0.58-2.77
						c0.61-0.92,1.85-1.18,2.77-0.58l11.72,7.69c0.92,0.61,1.18,1.85,0.58,2.77C427.29,338.03,426.65,338.35,426,338.35z"/>
					<path class="st2" d="M289.69,248.92c-0.38,0-0.76-0.11-1.1-0.33l-11.72-7.69c-0.92-0.61-1.18-1.85-0.58-2.77
						c0.61-0.92,1.85-1.18,2.77-0.58l11.72,7.69c0.92,0.61,1.18,1.85,0.58,2.77C290.98,248.61,290.35,248.92,289.69,248.92z"/>
				</g>
			</g>
		</g>
		<path class="st2" d="M351.99,289.79c-0.39,0-0.77-0.11-1.1-0.33c-0.44-0.29-0.75-0.75-0.86-1.27l-9.52-45.86
			c-0.22-1.08,0.47-2.14,1.55-2.36c1.08-0.23,2.14,0.47,2.36,1.55l9.12,43.9l57.05-11.85c1.08-0.23,2.14,0.47,2.36,1.55
			c0.22,1.08-0.47,2.14-1.55,2.36l-59.01,12.25C352.26,289.78,352.12,289.79,351.99,289.79z"/>
		<g>
			
				<ellipse transform="matrix(0.5386 -0.8425 0.8425 0.5386 -80.083 429.3403)" class="st3" cx="351.99" cy="287.79" rx="19.71" ry="19.71"/>
			
				<ellipse transform="matrix(0.7906 -0.6124 0.6124 0.7906 -102.5201 275.8317)" class="st4" cx="351.99" cy="287.79" rx="13.73" ry="13.73"/>
			<path class="st9" d="M358.74,286.39c0.77,3.73-1.62,7.38-5.35,8.15c-3.73,0.77-7.38-1.62-8.15-5.35
				c-0.77-3.73,1.62-7.38,5.35-8.15C354.31,280.27,357.96,282.66,358.74,286.39z"/>
		</g>
	</g>
	<g>
		<g>
			<defs>
				<path id="XMLID_1_" d="M263.44,295.24v-23.1h-76.37v23.1c0,11.94,5.48,25.34,14.07,34.71c4.09,4.46,4.09,11.2,0,15.66
					c-8.59,9.38-14.07,22.77-14.07,34.71v23.1h76.37v-23.1c0-11.94-5.48-25.34-14.07-34.71c-4.09-4.46-4.09-11.2,0-15.66
					C257.96,320.57,263.44,307.18,263.44,295.24z"/>
			</defs>
			<use xlink:href="#XMLID_1_"  style="overflow:visible;fill:#FFFFFF;"/>
			<clipPath id="XMLID_3_">
				<use xlink:href="#XMLID_1_"  style="overflow:visible;"/>
			</clipPath>
			<path class="st10" d="M277.52,295.24v-23.1h-76.37v23.1c0,11.94,5.48,25.34,14.07,34.71c4.09,4.46,4.09,11.2,0,15.66
				c-8.59,9.38-14.07,22.77-14.07,34.71v23.1h76.37v-23.1c0-11.94-5.48-25.34-14.07-34.71c-4.09-4.46-4.09-11.2,0-15.66
				C272.03,320.57,277.52,307.18,277.52,295.24z"/>
		</g>
		<g>
			<path class="st1" d="M229.83,304.3c-8.38-2.22-17.52-1.41-25.38,2.25c-1.26,0.59-2.49,1.27-3.65,2.04
				c4.57,11.77,14.3,22.37,24.46,22.37c9.4,0,18.43-9.08,23.35-19.77c-1.64-0.46-3.25-1.01-4.83-1.61
				C239.14,307.79,234.64,305.57,229.83,304.3z"/>
			<path class="st3" d="M252.44,283.14h-54.37v12.1c0,4.28,1,8.9,2.73,13.35c1.16-0.77,2.4-1.46,3.65-2.04
				c7.86-3.66,17-4.47,25.38-2.25c4.81,1.27,9.31,3.49,13.95,5.28c1.58,0.61,3.19,1.16,4.83,1.61c2.41-5.23,3.83-10.83,3.83-15.96
				V283.14z"/>
		</g>
		<g>
			<path class="st1" d="M233.19,372.91c-5,1.97-9.73,4.55-14.73,6.49c-5,1.95-10.41,3.26-15.73,2.54c-1.59-0.22-3.14-0.63-4.65-1.18
				v11.67h54.37v-12.1c0-3.71-0.75-7.67-2.08-11.56c-0.97,0.08-1.93,0.19-2.88,0.33C242.6,369.82,237.79,371.1,233.19,372.91z"/>
			<path class="st3" d="M225.26,344.6c-14,0-27.18,20.13-27.18,35.72v0.43c1.51,0.55,3.06,0.96,4.65,1.18
				c5.32,0.73,10.72-0.59,15.73-2.54c5-1.95,9.74-4.53,14.73-6.49c4.6-1.81,9.41-3.09,14.31-3.81c0.95-0.14,1.91-0.25,2.88-0.33
				C246.12,356.3,235.93,344.6,225.26,344.6z"/>
		</g>
		<path class="st1" d="M263.78,263.02h-77.05c-2.52,0-4.56,2.04-4.56,4.56l0,0c0,2.52,2.04,4.56,4.56,4.56h77.05
			c2.52,0,4.56-2.04,4.56-4.56l0,0C268.34,265.06,266.3,263.02,263.78,263.02z"/>
		<path class="st1" d="M263.78,403.43h-77.05c-2.52,0-4.56,2.04-4.56,4.56l0,0c0,2.52,2.04,4.56,4.56,4.56h77.05
			c2.52,0,4.56-2.04,4.56-4.56l0,0C268.34,405.47,266.3,403.43,263.78,403.43z"/>
	</g>
</g>
<g>
	
		<ellipse transform="matrix(0.1608 -0.987 0.987 0.1608 108.8605 651.8243)" class="st11" cx="437.72" cy="261.9" rx="11.66" ry="11.66"/>
	<g>
		<g>
			<path class="st12" d="M386.88,324.41c-4.59,2.43-12.3,3.75-13.6,0.77c-1.08-2.46,1.74-6.1,5.08-8.67c2.54-1.96,6.28-2.6,6.28-2.6
				s-6.87-2.12-3.78-3.69c3.09-1.57,12.29,2.13,12.29,2.13c13.19-12.33,22.98-17.69,22.98-17.69s5.06-8.09,11.72-17.67
				c6.11-8.78,17.92-9.9,17.92-9.9s-1.57,7.09-5.32,13.75c-3.76,6.66-14.12,18.28-18.07,21.76c-8.41,7.39-26.27,14.79-26.27,14.79
				S392.77,321.3,386.88,324.41z"/>
			<g>
				<path d="M373.54,322.09c-0.02-0.01-0.04-0.03-0.05-0.05c-0.03-0.05-0.01-0.12,0.04-0.15c0.07-0.04,7.3-3.56,8.46-3.97
					c0.01-0.01,0.02-0.02,0.04-0.03l0.01,0.02c0.06-0.02,0.1-0.03,0.11-0.02c0.03,0.02,0.05,0.06,0.05,0.1
					c0,0.04-0.03,0.08-0.07,0.1c-0.01,0.01-0.02,0.01-0.04,0.01c-0.48,0.2-6.5,2.93-8.47,3.99
					C373.6,322.1,373.57,322.1,373.54,322.09z"/>
				<path d="M373.21,325.13c-0.02-0.01-0.04-0.03-0.05-0.05c-0.03-0.05-0.01-0.12,0.04-0.15c1.11-0.6,2.83-1.39,4.65-2.24
					c1.9-0.88,3.87-1.79,5.15-2.49c0.05-0.03,0.12-0.01,0.15,0.04c0.03,0.05,0.01,0.12-0.04,0.15c-1.29,0.7-3.26,1.61-5.17,2.49
					c-1.82,0.84-3.53,1.63-4.64,2.23C373.28,325.14,373.24,325.14,373.21,325.13z"/>
				<path d="M374.95,326.65c-0.03-0.01-0.05-0.03-0.06-0.06c-0.02-0.06,0.01-0.12,0.06-0.14c2.48-0.92,5.33-2.34,9.12-4.34
					c0.05-0.03,0.12-0.01,0.15,0.05c0.03,0.05,0.01,0.12-0.05,0.15c-3.8,2-6.66,3.43-9.15,4.35
					C375.01,326.66,374.98,326.66,374.95,326.65z"/>
				<path d="M384.49,322.76c-0.02-0.01-0.03-0.02-0.04-0.04c-1.34-1.86-2.38-4.09-2.85-6.12c-0.01-0.06,0.02-0.12,0.08-0.13
					c0.06-0.01,0.12,0.02,0.13,0.08c0.46,2.01,1.49,4.21,2.81,6.05c0.03,0.05,0.02,0.12-0.02,0.15
					C384.57,322.77,384.53,322.77,384.49,322.76z"/>
			</g>
		</g>
	</g>
	<path class="st3" d="M445.77,267.1c0,0-11.81,1.13-17.92,9.9c-2.38,3.42-4.55,6.65-6.36,9.39c3.71,1.49,7,4.05,9.34,7.3
		c3.77-4.37,7.63-9.3,9.62-12.83C444.2,274.19,445.77,267.1,445.77,267.1z"/>
	<g>
		<path class="st12" d="M485.91,292.11c0,0-3.72-10.49-6.53-15.93c-2.81-5.44-9.33-7.25-11.76-7.96c-2.46-0.73-4.06,4.59,1.76,13.95
			c5.77,9.29,11.29,22.75,16.7,22c5.41-0.75,18.38-20.95,20.37-24.86c0,0,6.02,0.32,10.9-3.98c4.57-4.01-5.56-9.88-9.63-5.57
			c0,0,0.89-5.83-0.69-6.72c-1.58-0.89-4.78,8.58-4.65,13.71C502.39,276.74,489.45,285.84,485.91,292.11z"/>
		<path class="st3" d="M484.26,287.66c-1.34-3.52-3.26-8.34-4.88-11.48c-2.81-5.44-9.33-7.25-11.76-7.96
			c-2.46-0.73-4.06,4.59,1.76,13.95c2.12,3.41,4.2,7.37,6.25,10.99c1.55-1.38,3.21-2.65,5-3.7
			C481.79,288.76,483.01,288.16,484.26,287.66z"/>
	</g>
	<path class="st13" d="M467.82,412.61c0,0,11.03-78.03,2.71-103.83c-12.65,2.67-25.31,1.05-31.37-0.06
		c-2.51,5.04-4.99,12.62-5.17,23.02c-0.38,21.43,2.34,82.15,2.34,82.15s3.69,2.97,10.27,1.68c1.73-11.04,5.15-36.61,2.34-50.87
		l4.71-37.62l4.59,37.19c0,0-7.25,9.61,1.19,50.57C461.44,415.08,465.31,415.14,467.82,412.61z"/>
	<g>
		<path d="M461.93,327.22C461.93,327.22,461.93,327.22,461.93,327.22c-2.77-0.14-5.75-0.18-9.39-0.12c-0.06,0-0.11-0.05-0.11-0.11
			c0-0.06,0.05-0.11,0.11-0.11c3.64-0.06,6.63-0.02,9.4,0.12c0.06,0,0.1,0.05,0.1,0.11C462.03,327.17,461.99,327.22,461.93,327.22z"
			/>
		<path d="M453.43,326.97C453.43,326.97,453.43,326.97,453.43,326.97c-0.07,0-0.11-0.06-0.11-0.11c0.17-2.46,0.09-5.01,0.02-7.48
			c-0.03-0.98-0.06-2-0.07-2.99c-0.04-2.63,0.01-5.3,0.05-7.88c0.05-2.94,0.1-5.98,0.03-8.97c0-0.06,0.05-0.11,0.1-0.11
			c0.06,0,0.11,0.05,0.11,0.11c0.07,2.99,0.02,6.03-0.03,8.98c-0.04,2.58-0.09,5.25-0.05,7.87c0.01,0.99,0.04,2,0.07,2.98
			c0.07,2.47,0.15,5.03-0.02,7.5C453.54,326.93,453.49,326.97,453.43,326.97z"/>
		<path d="M456.02,326.99c-0.01,0-0.02,0-0.02,0c-0.06-0.01-0.1-0.07-0.08-0.13c0.2-0.92,0.2-1.97,0.2-2.98c0-0.4,0-0.79,0.02-1.17
			c0.06-1.77,0.07-3.57,0.08-5.31c0.01-1.32,0.01-2.69,0.04-4.04c0.02-0.95,0.03-1.92,0.04-2.85c0.01-1.54,0.03-3.14,0.1-4.7
			c0.01-0.33,0.03-0.67,0.06-1.01c0.07-1.26,0.15-2.56-0.01-3.76c-0.01-0.06,0.03-0.11,0.09-0.12c0.06-0.01,0.11,0.03,0.12,0.09
			c0.16,1.22,0.08,2.53,0.01,3.8c-0.02,0.34-0.04,0.68-0.06,1.01c-0.07,1.56-0.08,3.16-0.1,4.7c-0.01,0.94-0.02,1.9-0.04,2.85
			c-0.03,1.34-0.04,2.71-0.04,4.03c-0.01,1.74-0.02,3.54-0.08,5.31c-0.01,0.38-0.01,0.76-0.02,1.16c0,1.02-0.01,2.08-0.21,3.03
			C456.11,326.95,456.07,326.99,456.02,326.99z"/>
	</g>
	<g>
		<path class="st12" d="M436.33,413.89c0,0-16.28,7.01-17.74,13.46c-1.46,6.45,23.75-2.97,27.12-6.46c0,0,0.37-2.01,0.89-5.32
			C440.02,416.86,436.33,413.89,436.33,413.89z"/>
		<path class="st1" d="M428.91,422.09c-1.14,0.08-2.36,0.06-3.35-0.52c-0.43-0.25-0.79-0.64-1.03-1.09
			c-2.94,2.12-5.41,4.53-5.94,6.87c-1.46,6.45,23.75-2.97,27.12-6.46c0,0,0.37-2.01,0.89-5.32c-0.36,0.07-0.71,0.13-1.05,0.17
			c-1.34,0.87-2.71,1.69-4.12,2.44C437.54,420.25,433.3,421.79,428.91,422.09z"/>
	</g>
	<g>
		<path class="st12" d="M467.82,412.61c-2.52,2.53-6.38,2.48-8.39,2.23c0.48,2.31,1,4.73,1.58,7.25c0,0,23.23,12.61,25.12,7.7
			C488.01,424.87,467.82,412.61,467.82,412.61z"/>
		<path class="st1" d="M479.9,421.11c-0.71,0.78-1.8,1.1-2.84,1.23c-2.67,0.32-5.39-0.37-7.79-1.58c-2.4-1.22-4.5-2.94-6.48-4.76
			c-0.38-0.35-0.75-0.7-1.11-1.06c-0.86,0.03-1.64-0.03-2.25-0.1c0.48,2.31,1,4.73,1.58,7.25c0,0,23.23,12.61,25.12,7.7
			C486.92,427.71,483.79,424.33,479.9,421.11z"/>
	</g>
	<path class="st3" d="M471.47,312.23c-1.14-5.02-2.79-8.73-5.09-10.48c0,0,9.44-24.81,6.56-30.28c-0.51-0.97-1.59-1.75-2.96-2.37
		c-4.94-2.24-13.69-2.44-13.69-2.44s-14.58-0.8-17.14,3.28c-2.7,4.29,5.37,30.93,5.37,30.93s-3.59,3.34-6.58,10.56
		C442.95,313.96,457.14,319.67,471.47,312.23z"/>
	<path class="st12" d="M467.62,268.21c-0.11-0.03-0.21-0.05-0.32-0.06c-4.89-1.36-11.02-1.5-11.02-1.5s-9.22-0.5-14.28,1.34
		c2.25,1.99,11.22,8.89,23.54,5.02c2.01-0.63,4.11-1.55,6.29-2.83c0.16-0.1,0.33-0.19,0.49-0.29
		C470.42,269.02,468.65,268.52,467.62,268.21z"/>
	<g>
		<path class="st14" d="M471.01,239.5c0,0,5.44-1.43,5.16-8.76c-0.29-7.34-25.1-14.96-33.73-6.4c0,0-5.53-0.57-8.4,4.62
			c-2.87,5.19-3.15,19.37-0.14,26.43c3.01,7.05,8.61,10.66,22.85,9.51C456.75,264.9,480.88,267.32,471.01,239.5z"/>
		<g>
			<defs>
				<path id="XMLID_118_" d="M461.75,262.25c0,0,8.36-0.57,10.5-8.22c2.33-8.31,2.21-20.97-3.76-26.48
					c-5.96-5.51-26.68-6.72-29.04,8.38c-2.14,13.67,3.06,22.36,12.62,26.51v6.28c0,0,3.7,5.34,9.76,0.74L461.75,262.25z"/>
			</defs>
			<use xlink:href="#XMLID_118_"  style="overflow:visible;fill:#FFA05F;"/>
			<clipPath id="XMLID_4_">
				<use xlink:href="#XMLID_118_"  style="overflow:visible;"/>
			</clipPath>
			<path class="st15" d="M448.82,252.01c0,2.64,2.14,4.78,4.78,4.78c2.64,0,4.78-2.14,4.78-4.78s-2.14-4.78-4.78-4.78
				C450.96,247.24,448.82,249.38,448.82,252.01z"/>
			<path class="st15" d="M467.17,251.54c0,2.64,2.14,4.78,4.78,4.78c2.64,0,4.78-2.14,4.78-4.78c0-2.64-2.14-4.78-4.78-4.78
				C469.31,246.76,467.17,248.9,467.17,251.54z"/>
		</g>
		<g>
			<path d="M465.61,253.17c-0.03,0-0.07-0.02-0.09-0.05c-0.03-0.05-0.02-0.12,0.03-0.15c0.13-0.09,0.25-0.29,0.36-0.46
				c0.04-0.07,0.08-0.13,0.12-0.18c0.24-0.34,0.66-1.11,0.52-1.57c-0.03-0.09-0.41-0.26-0.57-0.34c-0.12-0.05-0.21-0.1-0.25-0.13
				c-0.5-0.34-1.19-0.89-1.65-1.6c-0.82-1.24-1.24-2.98-1.13-4.75c0.11-1.99,1.05-3.98,2.44-5.19c1.03-0.89,2.25-1.3,3.52-1.19
				c0.57,0.05,1.18,0.15,1.77,0.51c0.05,0.03,0.07,0.1,0.03,0.15c-0.03,0.05-0.1,0.07-0.15,0.03c-0.52-0.32-1.04-0.42-1.67-0.48
				c-1.22-0.11-2.38,0.29-3.36,1.14c-1.35,1.17-2.26,3.1-2.37,5.04c-0.1,1.73,0.3,3.41,1.1,4.62c0.45,0.68,1.11,1.21,1.59,1.54
				c0.03,0.02,0.13,0.07,0.23,0.11c0.37,0.17,0.64,0.31,0.69,0.47c0.16,0.54-0.27,1.36-0.55,1.76c-0.04,0.05-0.07,0.11-0.11,0.18
				c-0.12,0.19-0.25,0.4-0.42,0.52C465.65,253.17,465.63,253.17,465.61,253.17z"/>
			<path d="M460.05,239.61c-0.03,0-0.06-0.01-0.08-0.03c-1.71-1.79-4.12-2.41-6.44-1.68c-0.54,0.17-0.94,0.49-1.35,0.84
				c-0.23,0.19-0.46,0.38-0.73,0.55c-0.05,0.03-0.12,0.02-0.15-0.03c-0.03-0.05-0.02-0.12,0.03-0.15c0.25-0.16,0.48-0.35,0.71-0.53
				c0.42-0.34,0.85-0.69,1.43-0.88c2.4-0.76,4.89-0.11,6.66,1.74c0.04,0.04,0.04,0.11,0,0.15
				C460.1,239.6,460.08,239.61,460.05,239.61z"/>
			<path d="M457.84,242.61c-0.05,0-0.09-0.03-0.1-0.08c-0.02-0.06,0.02-0.12,0.07-0.13c1.05-0.3,0.99-1.73,0.99-1.75
				c0-0.06,0.04-0.11,0.1-0.11c0.06,0,0.11,0.04,0.11,0.1c0,0.02,0.07,1.61-1.15,1.96C457.86,242.61,457.85,242.61,457.84,242.61z"
				/>
			<path d="M470.47,242.38c-0.05,0-0.09-0.03-0.1-0.08c-0.02-0.06,0.02-0.12,0.07-0.13c1.05-0.3,0.99-1.73,0.99-1.75
				c0-0.06,0.04-0.11,0.1-0.11c0.06,0,0.11,0.04,0.11,0.1c0,0.02,0.07,1.61-1.15,1.96C470.49,242.38,470.48,242.38,470.47,242.38z"
				/>
			<g>
				<defs>
					<path id="XMLID_117_" d="M452.47,246.07c-0.94-2.3-0.16-4.74,1.75-5.46c1.91-0.71,4.22,0.57,5.16,2.87
						c0.94,2.3,0.16,4.74-1.75,5.46C455.72,249.66,453.41,248.37,452.47,246.07z"/>
				</defs>
				<use xlink:href="#XMLID_117_"  style="overflow:visible;fill:#FFFFFF;"/>
				<clipPath id="XMLID_5_">
					<use xlink:href="#XMLID_117_"  style="overflow:visible;"/>
				</clipPath>
				
					<ellipse transform="matrix(0.9998 -0.0184 0.0184 0.9998 -4.4365 8.4632)" class="st16" cx="457.88" cy="245.42" rx="3.23" ry="3.7"/>
			</g>
			<g>
				<defs>
					<path id="XMLID_116_" d="M471.51,244.55c0.24-2.47-1.11-4.6-3.02-4.75c-1.91-0.15-3.67,1.72-3.91,4.19
						c-0.24,2.47,1.11,4.6,3.02,4.75C469.52,248.9,471.27,247.02,471.51,244.55z"/>
				</defs>
				<use xlink:href="#XMLID_116_"  style="overflow:visible;fill:#FFFFFF;"/>
				<clipPath id="XMLID_6_">
					<use xlink:href="#XMLID_116_"  style="overflow:visible;"/>
				</clipPath>
				<path class="st17" d="M466.17,245.38c0.04,2.04,1.51,3.67,3.3,3.64c1.78-0.03,3.2-1.72,3.16-3.76c-0.04-2.04-1.51-3.67-3.3-3.64
					C467.55,241.65,466.14,243.34,466.17,245.38z"/>
			</g>
			<path d="M461.09,258.07c0.09,0.01,0.18,0.01,0.27,0.01c0.06,0,0.11-0.05,0.11-0.11c0-0.06-0.05-0.1-0.11-0.11
				c-0.91,0-1.94-0.38-2.49-0.93c-0.04-0.04-0.11-0.04-0.15,0c-0.04,0.04-0.04,0.11,0,0.15
				C459.34,257.71,460.31,258.02,461.09,258.07z"/>
			<g>
				<g>
					<defs>
						<path id="XMLID_123_" d="M465.13,254.31c0,0-4.62,0.79-7.17-2.45c0,0-0.25,3.88,2.3,4.77
							C463.79,257.87,465.13,254.31,465.13,254.31z"/>
					</defs>
					<use xlink:href="#XMLID_123_"  style="overflow:visible;fill:#421C0D;"/>
					<clipPath id="XMLID_7_">
						<use xlink:href="#XMLID_123_"  style="overflow:visible;"/>
					</clipPath>
					<path class="st18" d="M457.96,251.86c0.94,1.2,2.17,1.85,3.34,2.19c0.34,0.78,0.54,1.77,0.25,2.85
						c-0.4-0.01-0.83-0.09-1.3-0.26C457.71,255.73,457.96,251.86,457.96,251.86z"/>
					<path class="st19" d="M457.65,252.85c0,0,0.66,0.82,1.75,1.5c1.55,0.97,3.86,1.34,4.83-0.27l-6.43-3.32L457.65,252.85z"/>
				</g>
			</g>
		</g>
		<path d="M446.51,250.72c-0.06,0-0.11-0.05-0.11-0.11c0-2.29-1.39-5.44-3.46-6.47c-0.05-0.03-0.07-0.09-0.05-0.14
			c0.03-0.05,0.09-0.07,0.14-0.05c2.14,1.07,3.58,4.31,3.58,6.67C446.61,250.68,446.57,250.72,446.51,250.72z"/>
		<path class="st14" d="M438.92,235.41c2.27-14.51,21.15-13.98,28.36-9.14c-0.7,1.99-5.4,13.02-19.87,19.4c0,0-1.89-4.89-5.21-3.87
			c-3.32,1.02-2.72,10.83,3.45,12.85l6.41,7.79C441.17,258.79,436.74,249.31,438.92,235.41z"/>
	</g>
	<path class="st2" d="M509.45,275.86l-8.96-3.73c-1.18-0.49-1.74-1.85-1.25-3.04l2.8-6.73c0.49-1.18,1.85-1.74,3.04-1.25l8.96,3.73
		c1.18,0.49,1.74,1.85,1.25,3.04l-2.8,6.73C512,275.79,510.64,276.35,509.45,275.86z"/>
	<g>
		<path class="st12" d="M510.36,272.46c1.77,3.04,3.65,5.25,7.03,3.28c3.38-1.97,2.4-4.69,0.63-7.73c-1.77-3.04-3.58-5.28-7.03-3.28
			C507.55,266.73,508.6,269.42,510.36,272.46z"/>
		<path d="M516.61,265.82c0.02-0.03,0.03-0.06,0.02-0.1c-0.02-0.05-0.08-0.08-0.14-0.07c-1.23,0.42-4.41,1.68-7.45,4.2
			c-0.05,0.04-0.05,0.1-0.01,0.15c0.04,0.05,0.1,0.05,0.15,0.01c3.01-2.49,6.16-3.74,7.38-4.16
			C516.58,265.85,516.6,265.84,516.61,265.82z"/>
		<path d="M518.1,268.07c0.02-0.03,0.03-0.06,0.02-0.1c-0.02-0.05-0.08-0.08-0.14-0.07c-1.36,0.47-4.72,2.01-7.69,4.47
			c-0.05,0.03-0.05,0.1-0.01,0.15c0.04,0.04,0.1,0.05,0.15,0.01c2.94-2.44,6.27-3.97,7.62-4.43
			C518.07,268.1,518.09,268.09,518.1,268.07z"/>
		<path d="M519.26,270.41c0.02-0.03,0.03-0.06,0.02-0.1c-0.02-0.05-0.08-0.08-0.14-0.07c-1.23,0.42-4.41,1.68-7.45,4.2
			c-0.05,0.04-0.05,0.1-0.01,0.15c0.04,0.05,0.1,0.05,0.15,0.01c3-2.49,6.16-3.74,7.38-4.16
			C519.23,270.44,519.25,270.43,519.26,270.41z"/>
	</g>
</g>
<g>
	<g>
		<g>
			<path class="st20" d="M730.51,337.27c3.86,3.48,10.99,6.65,12.99,4.08c1.65-2.12-0.2-6.34-2.8-9.65
				c-1.98-2.52-5.44-4.06-5.44-4.06s7.17-0.37,4.57-2.65s-12.43-0.95-12.43-0.95c-4.97-16.71-15.96-26.46-15.96-26.46
				s-2.75-8.49-9.07-19.19c-6.42-10.87-13.56-11.24-13.56-11.24s-0.44,5.07,1.57,12.45c2.01,7.38,11.49,22.37,14.47,26.7
				c6.34,9.23,18.46,21.9,18.46,21.9S725.56,332.8,730.51,337.27z"/>
			<g>
				<path d="M744,338.28c0.02,0,0.04-0.02,0.06-0.03c0.04-0.04,0.04-0.11-0.01-0.15c-0.06-0.06-6.2-5.24-7.23-5.92
					c-0.01-0.02-0.02-0.03-0.03-0.04l-0.01,0.01c-0.05-0.03-0.09-0.05-0.1-0.05c-0.04,0.01-0.06,0.04-0.07,0.08
					c-0.01,0.04,0.01,0.09,0.04,0.11c0.01,0.01,0.02,0.02,0.03,0.02c0.41,0.31,5.58,4.43,7.23,5.94
					C743.93,338.28,743.97,338.28,744,338.28z"/>
				<path d="M743.57,341.31c0.02,0,0.04-0.02,0.06-0.03c0.04-0.04,0.04-0.11-0.01-0.15c-0.93-0.85-2.4-2.05-3.96-3.31
					c-1.63-1.32-3.31-2.69-4.39-3.67c-0.04-0.04-0.11-0.04-0.15,0.01c-0.04,0.04-0.04,0.11,0.01,0.15c1.08,0.99,2.76,2.36,4.4,3.68
					c1.55,1.26,3.02,2.45,3.95,3.3C743.51,341.3,743.54,341.31,743.57,341.31z"/>
				<path d="M741.51,342.36c0.03,0,0.05-0.02,0.07-0.05c0.03-0.05,0.02-0.12-0.03-0.15c-2.18-1.5-4.59-3.58-7.78-6.44
					c-0.04-0.04-0.11-0.04-0.15,0.01c-0.04,0.04-0.04,0.11,0.01,0.15c3.19,2.87,5.61,4.96,7.8,6.46
					C741.46,342.36,741.49,342.36,741.51,342.36z"/>
				<path d="M733.23,336.24c0.02,0,0.04-0.01,0.05-0.02c1.75-1.47,3.3-3.38,4.26-5.24c0.03-0.05,0.01-0.12-0.05-0.14
					c-0.05-0.03-0.12-0.01-0.14,0.05c-0.94,1.84-2.47,3.72-4.21,5.17c-0.05,0.04-0.05,0.11-0.01,0.15
					C733.15,336.24,733.19,336.25,733.23,336.24z"/>
			</g>
		</g>
		<path class="st9" d="M705.92,284.88c-1.03-2.03-2.21-4.2-3.56-6.49c-6.42-10.87-13.56-11.24-13.56-11.24s-1.21,5.07,0.8,12.45
			c0.82,3.02,3.66,7.31,6.03,11.62C698.17,288,701.9,285.71,705.92,284.88z"/>
	</g>
	<g>
		
			<rect x="721.22" y="307.55" transform="matrix(0.9466 0.3223 -0.3223 0.9466 153.7517 -216.2837)" class="st2" width="17.66" height="97.27"/>
		
			<rect x="704.82" y="402.11" transform="matrix(0.9466 0.3223 -0.3223 0.9466 168.4044 -208.4261)" class="st4" width="17.66" height="4.52"/>
		
			<rect x="703.36" y="406.38" transform="matrix(0.9466 0.3223 -0.3223 0.9466 169.705 -207.7287)" class="st2" width="17.66" height="4.52"/>
		<path class="st1" d="M719.82,413.63l-16.72-5.69l-2.34,6.88c-1.57,4.62,0.9,9.63,5.51,11.2l0,0c4.62,1.57,9.63-0.9,11.2-5.51
			L719.82,413.63z"/>
		
			<rect x="701.9" y="410.66" transform="matrix(0.9466 0.3223 -0.3223 0.9466 171.0056 -207.0312)" class="st4" width="17.66" height="4.52"/>
		
			<rect x="727.33" y="307.55" transform="matrix(0.9466 0.3223 -0.3223 0.9466 153.7584 -216.2905)" class="st2" width="5.44" height="97.27"/>
		<path class="st4" d="M752.19,291.16c-2.34-0.8-13.37,11.87-14.82,16.14c0,0,1.47,3.34,7.43,5.37c5.96,2.03,9.28,0.33,9.28,0.33
			C755.24,309.59,754.53,291.95,752.19,291.16z"/>
		<path class="st1" d="M754.02,296.71c-0.41-3-1.02-5.28-1.83-5.55c-0.83-0.28-2.76,1.14-4.97,3.28c0.6,1.13,1.61,2.04,2.91,2.49
			C751.46,297.37,752.84,297.25,754.02,296.71z"/>
	</g>
	<path class="st21" d="M693.68,259.57c1.86-1.37-4.91-2.3,0.24-9.33c5.76-7.87,5.09-16.76,4.37-19.79
		c-1.33-5.62-6.24-5.14-6.24-5.14c-9.52-11.63-26.52-4.64-31.77,1.03c-5.25,5.67-11.36,3.76-8.79,8.63
		c2.57,4.87,15.89,4.51,15.89,4.51l10.89,19.98l1.46,2.68c0,0,4.43,2.64,8.73,0.66c2.89-1.33-1.6-0.96-2.47-3.47
		C685.99,259.33,690.9,261.63,693.68,259.57z"/>
	<g>
		<path class="st20" d="M645.95,289.28c0,0,4.2-10.31,7.26-15.61c3.06-5.3,10.2-6.96,12.39-7.27c0,0,3.56,4.64-2.68,13.71
			c-6.2,9.01-12.34,22.2-17.7,21.2c-5.37-1-17.39-21.78-19.2-25.78c0,0-6.02,0.04-10.71-4.48c-4.38-4.22-7.16-7.52-5.1-9.93
			c1.26-1.47,11.11,0.31,14.98,4.8c0,0-0.63-5.87,1-6.68c1.62-0.81,4.38,8.79,4.01,13.91C630.19,273.17,642.7,282.85,645.95,289.28z
			"/>
		<g>
			<path d="M619.61,265.32c0.04,0,0.07-0.02,0.09-0.05c0.03-0.05,0.01-0.12-0.04-0.15c-1.94-1.1-5.14-2.6-9-4.22l-0.12-0.05
				c-0.05-0.02-0.12,0-0.14,0.06c-0.02,0.05,0,0.12,0.06,0.14l0.12,0.05c3.85,1.62,7.04,3.11,8.97,4.21
				C619.57,265.32,619.59,265.32,619.61,265.32z"/>
			<path d="M618.55,267.19c0.04,0,0.07-0.02,0.09-0.06c0.03-0.05,0.01-0.12-0.04-0.15c-0.06-0.03-5.94-3.25-9.01-4.69
				c-0.05-0.03-0.12,0-0.14,0.05c-0.03,0.05,0,0.12,0.05,0.14c3.06,1.44,8.94,4.65,9,4.69
				C618.52,267.19,618.53,267.19,618.55,267.19z"/>
			<path d="M617.79,269.01c0.04,0,0.08-0.02,0.1-0.06c0.03-0.05,0-0.12-0.05-0.14c-0.4-0.2-1.21-0.68-2.06-1.19
				c-0.77-0.46-1.57-0.94-2.11-1.23c-0.6-0.32-3.83-2.31-3.86-2.33c-0.05-0.03-0.12-0.02-0.15,0.04c-0.03,0.05-0.02,0.12,0.04,0.15
				c0.13,0.08,3.27,2.01,3.88,2.33c0.54,0.29,1.34,0.77,2.1,1.22c0.86,0.51,1.67,1,2.08,1.2C617.75,269,617.77,269.01,617.79,269.01
				z"/>
			<path d="M617.64,269.5c0.05,0,0.09-0.03,0.1-0.07c0.49-1.55,1.22-3,2.16-4.29c0.03-0.05,0.02-0.12-0.02-0.15
				c-0.05-0.04-0.12-0.02-0.15,0.02c-0.96,1.32-1.7,2.78-2.2,4.35c-0.02,0.06,0.01,0.12,0.07,0.13
				C617.62,269.5,617.63,269.5,617.64,269.5z"/>
		</g>
		<path class="st9" d="M665.59,266.4c-2.2,0.31-9.33,1.97-12.39,7.27c-1.74,3.02-3.85,7.66-5.34,11.09
			c1.16,0.31,2.26,0.88,3.26,1.55c1.91,1.28,3.56,2.98,4.75,4.94c2.31-3.64,4.67-7.7,7.05-11.14
			C669.16,271.04,665.59,266.4,665.59,266.4z"/>
	</g>
	<path class="st22" d="M690.92,413.59c0,0,3.06-78.01,2.55-100.53c-17.83,2.62-30.02-0.23-33.58-1.25
		c-2.53,25.31-7.36,99.05-7.36,99.05s2.78,3.72,10.47,1.51c7.79-38.33,7.03-49.47,7.03-49.47l3.97-31.11l1.66-0.03l1.78,32.06
		c-2.15,15.41,1.36,38.51,2.85,49.74C682.26,414.5,687.09,416.32,690.92,413.59z"/>
	<g>
		<path class="st4" d="M652.53,410.85c0,0-19.71,14.08-18.05,19.08c1.66,5,27.03-10.49,27.03-10.49c0.54-2.46,1.03-4.81,1.49-7.08
			C655.3,414.56,652.53,410.85,652.53,410.85z"/>
		<path class="st23" d="M640.89,420.31c-3.91,3.66-7.13,7.47-6.42,9.62c1.66,5,27.03-10.49,27.03-10.49
			c0.19-0.86,0.37-1.7,0.55-2.54c-5.35,2.95-10.76,5.81-16.21,8.57C644.99,423.17,643.13,421.32,640.89,420.31z"/>
	</g>
	<g>
		<path class="st4" d="M708.01,427.86c-1.16-6.51-17.09-14.26-17.09-14.26c-3.83,2.73-8.66,0.91-10.64-0.04
			c0.54,4.09,0.95,6.6,0.95,6.6C684.42,423.79,709.17,434.37,708.01,427.86z"/>
		<path class="st23" d="M708.01,427.86c-0.55-3.08-4.4-6.43-8.31-9.12c-0.03,0.03-0.06,0.06-0.09,0.08
			c-1.82,1.7-3.03,3.95-4.08,6.22c-5.02-2.09-9.91-4.47-14.65-7.13c0.21,1.43,0.34,2.23,0.34,2.23
			C684.42,423.79,709.17,434.37,708.01,427.86z"/>
	</g>
	<g>
		<path class="st22" d="M658.98,407.48c-2.22-0.2-4.14-0.66-6.12-1.67l-0.33,5.03c0,0,2.78,3.72,10.47,1.51
			c0.36-1.78,0.7-3.5,1.02-5.17C662.39,407.58,660.64,407.63,658.98,407.48z"/>
		<path class="st22" d="M685.45,408.92c-1.99,0.01-4.13-0.27-5.94-1.06c0,0,0.55,4.03,0.77,5.69c1.98,0.96,6.81,2.77,10.64,0.04
			l0.21-5.57C689.28,408.65,687.41,408.91,685.45,408.92z"/>
	</g>
	<g>
		<path d="M677.42,331.88c-0.02,0-0.04,0-0.05-0.01c-0.06-0.03-0.25-0.02-0.36-0.01c-0.06,0-0.11,0.01-0.15,0.01
			c-0.44,0-0.88-0.02-1.31-0.03c-1.24-0.05-2.5-0.02-3.72,0c-0.74,0.02-1.5,0.03-2.25,0.03c-0.06,0-0.11-0.05-0.11-0.11
			c0-0.06,0.05-0.11,0.11-0.11h0c0.75,0,1.51-0.01,2.25-0.03c1.22-0.02,2.48-0.05,3.73,0c0.43,0.02,0.87,0.03,1.3,0.03
			c0.03,0,0.08,0,0.13-0.01c0.21-0.02,0.38-0.03,0.49,0.04c0.05,0.03,0.07,0.1,0.04,0.15C677.5,331.87,677.46,331.88,677.42,331.88z
			"/>
		<path d="M672.78,331.77c-0.04,0-0.08-0.02-0.1-0.07c-0.41-0.96-0.46-2.1-0.52-3.2c-0.02-0.35-0.04-0.68-0.06-1
			c-0.3-3.44-0.15-7.07,0.46-10.8c0.16-0.96,0.4-1.92,0.64-2.85c0.26-1.03,0.54-2.1,0.68-3.15c0.01-0.06,0.06-0.1,0.12-0.09
			c0.06,0.01,0.1,0.06,0.09,0.12c-0.15,1.06-0.42,2.14-0.69,3.17c-0.24,0.93-0.48,1.88-0.64,2.83c-0.61,3.71-0.77,7.33-0.46,10.75
			c0.03,0.32,0.05,0.66,0.06,1.01c0.06,1.08,0.11,2.21,0.51,3.13c0.02,0.05,0,0.12-0.06,0.14
			C672.8,331.76,672.79,331.77,672.78,331.77z"/>
		<path d="M675.07,331.7c-0.05,0-0.09-0.03-0.1-0.08c-0.38-1.5-0.41-3.12-0.43-4.69c0-0.3-0.01-0.59-0.02-0.88
			c-0.09-4.19,0.21-8,0.91-11.33c0.1-0.46,0.16-0.97,0.22-1.51c0.12-1.06,0.25-2.16,0.68-3.02c0.03-0.05,0.09-0.07,0.14-0.05
			c0.05,0.03,0.07,0.09,0.05,0.14c-0.41,0.83-0.54,1.91-0.66,2.95c-0.06,0.54-0.12,1.06-0.22,1.53c-0.69,3.31-1,7.11-0.9,11.28
			c0.01,0.29,0.01,0.58,0.02,0.88c0.02,1.56,0.05,3.17,0.42,4.64c0.01,0.06-0.02,0.12-0.08,0.13
			C675.08,331.7,675.07,331.7,675.07,331.7z"/>
	</g>
	<path class="st9" d="M693.5,316.94c0-3.47-0.07-6.19-0.24-7.89c-1.48-14.67,2.03-34.97-0.47-39.38
		c-2.37-4.19-16.97-4.08-16.97-4.08s-8.75-0.2-13.79,1.8c-1.4,0.56-2.51,1.28-3.07,2.23c-3.13,5.33,3.39,26.83,1.57,37.15
		c-0.43,2.44-0.8,6.07-1.11,10.55C663.36,320.88,676.37,330.17,693.5,316.94z"/>
	<path class="st20" d="M674.36,270.79c4.38,0.4,7.7-2.48,9.4-4.68c-4.07-0.54-7.94-0.51-7.94-0.51s-2.97-0.07-6.45,0.27
		C669.55,267.44,670.4,270.43,674.36,270.79z"/>
	<g>
		<g>
			<defs>
				<path id="XMLID_115_" d="M671.03,261.88c0,0-8.36-0.57-10.5-8.22c-2.33-8.31-2.21-20.97,3.76-26.48
					c5.96-5.51,26.68-6.72,29.04,8.38c2.14,13.67-3.06,22.36-12.62,26.51v4.46c0,0-3.7,5.34-9.76,0.74L671.03,261.88z"/>
			</defs>
			<use xlink:href="#XMLID_115_"  style="overflow:visible;fill:#FFD19F;"/>
			<clipPath id="XMLID_8_">
				<use xlink:href="#XMLID_115_"  style="overflow:visible;"/>
			</clipPath>
			<path class="st24" d="M683.96,251.64c0,2.64-2.14,4.78-4.78,4.78c-2.64,0-4.78-2.14-4.78-4.78s2.14-4.78,4.78-4.78
				C681.82,246.86,683.96,249,683.96,251.64z"/>
			<path class="st24" d="M665.61,251.16c0,2.64-2.14,4.78-4.78,4.78c-2.64,0-4.78-2.14-4.78-4.78c0-2.64,2.14-4.78,4.78-4.78
				C663.47,246.39,665.61,248.53,665.61,251.16z"/>
		</g>
		<g>
			<path d="M667.18,252.8c-0.02,0-0.04-0.01-0.06-0.02c-0.17-0.12-0.3-0.33-0.42-0.52c-0.04-0.06-0.08-0.12-0.11-0.18
				c-0.28-0.4-0.71-1.22-0.55-1.76c0.05-0.16,0.32-0.3,0.69-0.47c0.1-0.05,0.19-0.09,0.23-0.11c0.48-0.33,1.15-0.86,1.59-1.54
				c0.8-1.21,1.2-2.89,1.1-4.62c-0.11-1.94-1.02-3.87-2.37-5.04c-0.98-0.85-2.15-1.24-3.36-1.14c-0.63,0.05-1.16,0.16-1.67,0.48
				c-0.05,0.03-0.12,0.02-0.15-0.03c-0.03-0.05-0.02-0.12,0.03-0.15c0.59-0.36,1.2-0.46,1.77-0.51c1.28-0.11,2.5,0.3,3.52,1.19
				c1.39,1.21,2.33,3.19,2.44,5.19c0.1,1.78-0.31,3.51-1.14,4.75c-0.47,0.71-1.16,1.26-1.65,1.6c-0.05,0.03-0.14,0.08-0.25,0.13
				c-0.16,0.08-0.54,0.25-0.57,0.34c-0.14,0.46,0.28,1.23,0.52,1.57c0.04,0.05,0.08,0.12,0.12,0.19c0.11,0.17,0.23,0.37,0.36,0.46
				c0.05,0.03,0.06,0.1,0.03,0.15C667.24,252.78,667.21,252.8,667.18,252.8z"/>
			<path d="M672.74,239.24c-0.03,0-0.05-0.01-0.07-0.03c-0.04-0.04-0.04-0.11,0-0.15c1.77-1.85,4.26-2.5,6.66-1.74
				c0.58,0.18,1.01,0.54,1.43,0.88c0.22,0.18,0.45,0.37,0.71,0.53c0.05,0.03,0.06,0.1,0.03,0.15c-0.03,0.05-0.1,0.06-0.15,0.03
				c-0.26-0.17-0.5-0.36-0.73-0.55c-0.42-0.34-0.81-0.67-1.35-0.84c-2.32-0.73-4.73-0.1-6.44,1.68
				C672.79,239.23,672.76,239.24,672.74,239.24z"/>
			<g>
				<defs>
					<path id="XMLID_114_" d="M680.32,245.7c0.94-2.3,0.16-4.74-1.75-5.46c-1.91-0.71-4.22,0.57-5.16,2.87
						c-0.94,2.3-0.16,4.74,1.75,5.46C677.06,249.28,679.37,248,680.32,245.7z"/>
				</defs>
				<use xlink:href="#XMLID_114_"  style="overflow:visible;fill:#FFFFFF;"/>
				<clipPath id="XMLID_9_">
					<use xlink:href="#XMLID_114_"  style="overflow:visible;"/>
				</clipPath>
				<path class="st25" d="M678.14,245.1c-0.04,2.04-1.51,3.67-3.3,3.64c-1.78-0.03-3.2-1.72-3.16-3.76s1.51-3.67,3.3-3.64
					C676.76,241.38,678.18,243.06,678.14,245.1z"/>
			</g>
			<g>
				<defs>
					<path id="XMLID_113_" d="M661.27,244.17c-0.24-2.47,1.11-4.6,3.02-4.75c1.91-0.15,3.67,1.72,3.91,4.19
						c0.24,2.47-1.11,4.6-3.02,4.75C663.26,248.52,661.51,246.64,661.27,244.17z"/>
				</defs>
				<use xlink:href="#XMLID_113_"  style="overflow:visible;fill:#FFFFFF;"/>
				<clipPath id="XMLID_10_">
					<use xlink:href="#XMLID_113_"  style="overflow:visible;"/>
				</clipPath>
				<path class="st26" d="M666.61,245.01c-0.04,2.04-1.51,3.67-3.3,3.64c-1.78-0.03-3.2-1.72-3.16-3.76
					c0.04-2.04,1.51-3.67,3.3-3.64C665.23,241.28,666.65,242.96,666.61,245.01z"/>
			</g>
			<path d="M672,257.85c-0.09,0-0.18,0-0.27-0.01c-0.06,0-0.1-0.06-0.1-0.12c0-0.06,0.06-0.1,0.12-0.1
				c0.91,0.07,1.96-0.24,2.55-0.75c0.05-0.04,0.11-0.03,0.15,0.01c0.04,0.05,0.03,0.11-0.01,0.15
				C673.77,257.61,672.78,257.85,672,257.85z"/>
			<g>
				<g>
					<defs>
						<path id="XMLID_119_" d="M668.23,253.81c0,0,4.56,1.12,7.33-1.94c0,0-0.02,3.88-2.63,4.6
							C669.33,257.46,668.23,253.81,668.23,253.81z"/>
					</defs>
					<use xlink:href="#XMLID_119_"  style="overflow:visible;fill:#421C0D;"/>
					<clipPath id="XMLID_11_">
						<use xlink:href="#XMLID_119_"  style="overflow:visible;"/>
					</clipPath>
					<path class="st27" d="M675.56,251.87c-1.03,1.13-2.3,1.69-3.49,1.94c-0.39,0.75-0.67,1.72-0.45,2.82
						c0.4,0.01,0.83-0.03,1.32-0.17C675.53,255.75,675.56,251.87,675.56,251.87z"/>
					<path class="st28" d="M675.8,252.88c0,0-0.72,0.77-1.85,1.37c-1.61,0.86-3.95,1.07-4.8-0.61l6.65-2.86V252.88z"/>
				</g>
			</g>
		</g>
		<path d="M686.28,250.35c-0.06,0-0.11-0.05-0.11-0.11c0-2.36,1.44-5.6,3.58-6.67c0.05-0.03,0.12,0,0.14,0.05
			c0.03,0.05,0,0.12-0.05,0.14c-2.07,1.03-3.46,4.18-3.46,6.47C686.39,250.3,686.34,250.35,686.28,250.35z"/>
		<path class="st21" d="M659.13,234.44c0,0,1.49-6.84,6.85-9c7.21-4.84,25.62-4.91,27.89,9.6c2.18,13.89-2.25,23.38-13.15,27.03
			c0,0,1.83-1.08,3.95-3.47c2.12-2.39,2.47-4.31,2.47-4.31c6.17-2.03,6.77-11.84,3.45-12.85c-3.31-1.02-5.21,3.87-5.21,3.87
			s-2.65-3.37-2.72-10.07c0,0-2.74,2.28-5.27,0.82c-2.53-1.46,0.58-5.12,0.58-5.12s-5.14,5.32-8.59,3.69
			c-3.45-1.64-0.98-5.73-0.98-5.73S664.75,234.09,659.13,234.44z"/>
	</g>
</g>
</svg>
